<?xml version="1.0" encoding="UTF-8" standalone="no"?>
<!DOCTYPE svg PUBLIC "-//W3C//DTD SVG 1.1//EN"
 "http://www.w3.org/Graphics/SVG/1.1/DTD/svg11.dtd">
<!-- Generated by graphviz version 13.1.0 (20250701.0955)
 -->
<!-- Title: packages_Modelos Pages: 1 -->
<svg width="2696pt" height="116pt"
 viewBox="0.00 0.00 2696.00 116.00" xmlns="http://www.w3.org/2000/svg" xmlns:xlink="http://www.w3.org/1999/xlink">
<g id="graph0" class="graph" transform="scale(1 1) rotate(0) translate(4 112)">
<title>packages_Modelos</title>
<polygon fill="white" stroke="none" points="-4,4 -4,-112 2691.62,-112 2691.62,4 -4,4"/>
<!-- app.modelos -->
<g id="node1" class="node">
<title>app.modelos</title>
<polygon fill="none" stroke="black" points="85.75,-36 0,-36 0,0 85.75,0 85.75,-36"/>
<text xml:space="preserve" text-anchor="start" x="8" y="-12.95" font-family="Times New Roman,serif" font-size="14.00">app.modelos</text>
</g>
<!-- app.modelos.Caracteristica -->
<g id="node2" class="node">
<title>app.modelos.Caracteristica</title>
<polygon fill="none" stroke="black" points="267.75,-36 104,-36 104,0 267.75,0 267.75,-36"/>
<text xml:space="preserve" text-anchor="start" x="112" y="-12.95" font-family="Times New Roman,serif" font-size="14.00">app.modelos.Caracteristica</text>
</g>
<!-- app.modelos.Caracteristica_Plan -->
<g id="node3" class="node">
<title>app.modelos.Caracteristica_Plan</title>
<polygon fill="none" stroke="black" points="480.12,-36 285.62,-36 285.62,0 480.12,0 480.12,-36"/>
<text xml:space="preserve" text-anchor="start" x="293.62" y="-12.95" font-family="Times New Roman,serif" font-size="14.00">app.modelos.Caracteristica_Plan</text>
</g>
<!-- app.modelos.Caracteristica_Usuario -->
<g id="node4" class="node">
<title>app.modelos.Caracteristica_Usuario</title>
<polygon fill="none" stroke="black" points="711.5,-36 498.25,-36 498.25,0 711.5,0 711.5,-36"/>
<text xml:space="preserve" text-anchor="start" x="506.25" y="-12.95" font-family="Times New Roman,serif" font-size="14.00">app.modelos.Caracteristica_Usuario</text>
</g>
<!-- app.modelos.Dispositivo -->
<g id="node5" class="node">
<title>app.modelos.Dispositivo</title>
<polygon fill="none" stroke="black" points="881.75,-36 730,-36 730,0 881.75,0 881.75,-36"/>
<text xml:space="preserve" text-anchor="start" x="738" y="-12.95" font-family="Times New Roman,serif" font-size="14.00">app.modelos.Dispositivo</text>
</g>
<!-- app.modelos.Permiso -->
<g id="node6" class="node">
<title>app.modelos.Permiso</title>
<polygon fill="none" stroke="black" points="1034.12,-36 899.62,-36 899.62,0 1034.12,0 1034.12,-36"/>
<text xml:space="preserve" text-anchor="start" x="907.62" y="-12.95" font-family="Times New Roman,serif" font-size="14.00">app.modelos.Permiso</text>
</g>
<!-- app.modelos.Permiso_usuario -->
<g id="node7" class="node">
<title>app.modelos.Permiso_usuario</title>
<polygon fill="none" stroke="black" points="1233.38,-36 1052.38,-36 1052.38,0 1233.38,0 1233.38,-36"/>
<text xml:space="preserve" text-anchor="start" x="1060.38" y="-12.95" font-family="Times New Roman,serif" font-size="14.00">app.modelos.Permiso_usuario</text>
</g>
<!-- app.modelos.Persona_confianza -->
<g id="node8" class="node">
<title>app.modelos.Persona_confianza</title>
<polygon fill="none" stroke="black" points="1442.62,-36 1251.12,-36 1251.12,0 1442.62,0 1442.62,-36"/>
<text xml:space="preserve" text-anchor="start" x="1259.12" y="-12.95" font-family="Times New Roman,serif" font-size="14.00">app.modelos.Persona_confianza</text>
</g>
<!-- app.modelos.Plan -->
<g id="node9" class="node">
<title>app.modelos.Plan</title>
<polygon fill="none" stroke="black" points="1574.62,-36 1461.12,-36 1461.12,0 1574.62,0 1574.62,-36"/>
<text xml:space="preserve" text-anchor="start" x="1469.12" y="-12.95" font-family="Times New Roman,serif" font-size="14.00">app.modelos.Plan</text>
</g>
<!-- app.modelos.Punto -->
<g id="node10" class="node">
<title>app.modelos.Punto</title>
<polygon fill="none" stroke="black" points="1713.38,-36 1592.38,-36 1592.38,0 1713.38,0 1713.38,-36"/>
<text xml:space="preserve" text-anchor="start" x="1600.38" y="-12.95" font-family="Times New Roman,serif" font-size="14.00">app.modelos.Punto</text>
</g>
<!-- app.modelos.Ruta -->
<g id="node11" class="node">
<title>app.modelos.Ruta</title>
<polygon fill="none" stroke="black" points="1846.38,-36 1731.38,-36 1731.38,0 1846.38,0 1846.38,-36"/>
<text xml:space="preserve" text-anchor="start" x="1739.38" y="-12.95" font-family="Times New Roman,serif" font-size="14.00">app.modelos.Ruta</text>
</g>
<!-- app.modelos.Tarjeta -->
<g id="node12" class="node">
<title>app.modelos.Tarjeta</title>
<polygon fill="none" stroke="black" points="1991.38,-36 1864.38,-36 1864.38,0 1991.38,0 1991.38,-36"/>
<text xml:space="preserve" text-anchor="start" x="1872.38" y="-12.95" font-family="Times New Roman,serif" font-size="14.00">app.modelos.Tarjeta</text>
</g>
<!-- app.modelos.associations -->
<g id="node17" class="node">
<title>app.modelos.associations</title>
<polygon fill="none" stroke="black" points="2079.25,-108 1924.5,-108 1924.5,-72 2079.25,-72 2079.25,-108"/>
<text xml:space="preserve" text-anchor="start" x="1932.5" y="-84.95" font-family="Times New Roman,serif" font-size="14.00">app.modelos.associations</text>
</g>
<!-- app.modelos.Tarjeta&#45;&gt;app.modelos.associations -->
<g id="edge1" class="edge">
<title>app.modelos.Tarjeta&#45;&gt;app.modelos.associations</title>
<path fill="none" stroke="black" d="M1946.17,-36.3C1955.06,-44.72 1965.91,-54.98 1975.67,-64.21"/>
<polygon fill="black" stroke="black" points="1982.65,-70.82 1972.29,-67.21 1979.9,-68.22 1975.39,-63.94 1975.39,-63.94 1975.39,-63.94 1979.9,-68.22 1978.48,-60.67 1982.65,-70.82"/>
</g>
<!-- app.modelos.Transaccion -->
<g id="node13" class="node">
<title>app.modelos.Transaccion</title>
<polygon fill="none" stroke="black" points="2315.62,-36 2160.12,-36 2160.12,0 2315.62,0 2315.62,-36"/>
<text xml:space="preserve" text-anchor="start" x="2168.12" y="-12.95" font-family="Times New Roman,serif" font-size="14.00">app.modelos.Transaccion</text>
</g>
<!-- app.modelos.Ubicacion -->
<g id="node14" class="node">
<title>app.modelos.Ubicacion</title>
<polygon fill="none" stroke="black" points="2478.38,-36 2333.38,-36 2333.38,0 2478.38,0 2478.38,-36"/>
<text xml:space="preserve" text-anchor="start" x="2341.38" y="-12.95" font-family="Times New Roman,serif" font-size="14.00">app.modelos.Ubicacion</text>
</g>
<!-- app.modelos.Ubicacion_usuario -->
<g id="node15" class="node">
<title>app.modelos.Ubicacion_usuario</title>
<polygon fill="none" stroke="black" points="2687.62,-36 2496.12,-36 2496.12,0 2687.62,0 2687.62,-36"/>
<text xml:space="preserve" text-anchor="start" x="2504.12" y="-12.95" font-family="Times New Roman,serif" font-size="14.00">app.modelos.Ubicacion_usuario</text>
</g>
<!-- app.modelos.Usuario -->
<g id="node16" class="node">
<title>app.modelos.Usuario</title>
<polygon fill="none" stroke="black" points="2142,-36 2009.75,-36 2009.75,0 2142,0 2142,-36"/>
<text xml:space="preserve" text-anchor="start" x="2017.75" y="-12.95" font-family="Times New Roman,serif" font-size="14.00">app.modelos.Usuario</text>
</g>
<!-- app.modelos.Usuario&#45;&gt;app.modelos.associations -->
<g id="edge2" class="edge">
<title>app.modelos.Usuario&#45;&gt;app.modelos.associations</title>
<path fill="none" stroke="black" d="M2057.58,-36.3C2048.69,-44.72 2037.84,-54.98 2028.08,-64.21"/>
<polygon fill="black" stroke="black" points="2021.1,-70.82 2025.27,-60.67 2023.85,-68.22 2028.36,-63.94 2028.36,-63.94 2028.36,-63.94 2023.85,-68.22 2031.46,-67.21 2021.1,-70.82"/>
</g>
</g>
</svg>
